<?xml version="1.0" encoding="utf-8"?>
<!-- Svg Vector Icons : http://www.onlinewebfonts.com/icon -->
<!DOCTYPE svg PUBLIC "-//W3C//DTD SVG 1.1//EN" "http://www.w3.org/Graphics/SVG/1.1/DTD/svg11.dtd">
<svg version="1.1" xmlns="http://www.w3.org/2000/svg" xmlns:xlink="http://www.w3.org/1999/xlink" x="0px" y="0px" viewBox="0 0 1000 1000" enable-background="new 0 0 1000 1000" xml:space="preserve">
<metadata> Svg Vector Icons : http://www.onlinewebfonts.com/icon </metadata>
<g><g transform="translate(0.000000,512.000000) scale(0.100000,-0.100000)"><path d="M4930,5074.6c-60.3-27.2-85.6-97.2-85.6-227.5c0-132.2-7.8-138.1-204.2-138.1c-322.8,0-1001.4-114.7-1448.6-243.1c-631.9-180.8-1263.9-505.6-1740.3-890.6c-326.7-264.4-707.8-694.2-923.6-1042.2C345,2237.7,100,1706.8,100,1603.8c0-110.8,175-186.7,243.1-106.9c17.5,17.5,56.4,64.2,87.5,103.1c175,213.9,738.9,346.1,1258.1,293.6c278.1-27.2,499.7-81.7,663.1-161.4c106.9-52.5,120.6-64.2,120.6-116.7c0-35,17.5-75.8,48.6-105c89.4-91.4,231.4-46.7,254.7,77.8c11.7,62.2,27.2,75.8,171.1,145.8c237.2,118.6,470.6,161.4,867.2,161.4c252.8,1.9,359.7-7.8,505.6-38.9c202.2-44.7,363.6-101.1,462.8-161.4l62.2-38.9V124.1v-1532.2l73.9-72c40.8-38.9,81.7-71.9,93.3-71.9s46.7,29.2,81.7,64.2l62.2,64.2l3.9,1543.9l5.8,1545.8l116.7,62.2c449.2,237.2,1343.6,233.3,1802.5-7.8c110.8-58.3,130.3-75.8,140-132.2c35-180.8,303.3-153.6,303.3,29.2c0,54.4,11.7,66.1,122.5,116.7c169.2,79.7,392.8,134.2,661.1,159.4c523.1,50.5,1083.1-79.7,1258.1-293.6c31.1-38.9,70-85.6,87.5-103.1c68.1-79.7,243.1-3.9,243.1,106.9c0,103.1-248.9,641.7-431.7,935.3c-223.6,355.8-591.1,772-919.7,1036.4c-478.3,386.9-1108.3,707.8-1746.1,892.5c-439.5,126.4-1121.9,241.1-1442.8,241.1c-196.4,0-204.2,5.8-204.2,138.1c0,134.2-25.3,200.3-91.4,229.4C5007.8,5101.8,4984.4,5101.8,4930,5074.6z"/><path d="M3016.7,651c-367.5-35-600.8-167.2-663.1-373.3c-23.3-75.8-21.4-79.7,56.4-167.2c93.3-106.9,246.9-408.3,353.9-690.3l75.8-204.2l505.6-5.8l505.6-3.9l21.4,81.7c108.9,429.7,336.4,840,503.6,910c58.3,23.3,58.3,25.3,31.1,79.7c-40.8,75.8-136.1,143.9-258.6,184.7c-85.6,27.2-149.7,31.1-350,21.4l-245-9.7l-70,73.9c-36.9,42.8-93.3,85.6-122.5,95.3C3308.3,662.7,3168.3,666.6,3016.7,651z"/><path d="M6287.2,643.2c-346.1-44.7-558.1-180.8-598.9-381.1c-9.7-48.6,1.9-77.8,70-163.3c95.3-124.4,283.9-505.5,361.7-731.1l56.4-161.4h511.4c456.9,0,509.5,3.9,509.5,31.1c0,58.3,134.2,431.7,208.1,585.3c75.8,151.7,248.9,363.6,318.9,385c54.5,17.5,44.7,52.5-35,130.3c-138,132.2-175,141.9-509.4,141.9h-297.5l-62.2,71.9C6728.6,662.7,6602.2,684.1,6287.2,643.2z"/><path d="M2781.4-1155.4c-25.3-29.2-159.4-138.1-299.4-245c-637.8-488-857.5-754.4-902.2-1094.7c-62.2-456.9-72-1333.9-19.4-1691.7l21.4-155.6l-70-169.2c-112.8-272.2-95.3-315,128.3-336.4c77.8-5.8,1650.8-9.7,3492.2-5.8l3352.2,5.8l36.9,46.7c50.6,62.2,46.7,103-23.3,305.3c-56.4,163.3-58.3,178.9-37,280c54.4,247,40.8,1446.7-21.4,1779.2c-9.7,54.4-44.7,153.6-79.7,223.6c-81.7,169.2-383.1,468.6-744.7,742.8c-149.7,114.7-307.2,243-350,285.8l-75.8,79.7H6680c-447.2,0-511.4-3.9-534.7-31.1c-15.6-17.5-175-147.8-357.8-289.7c-414.2-322.8-546.4-443.3-672.8-614.4c-56.4-73.9-107-128.3-114.7-120.6c-5.8,7.8-50.6,68.1-97.2,130.3c-106.9,140-293.6,307.2-651.4,579.4c-149.7,112.8-303.3,237.2-338.3,276.1l-68.1,70h-507.5h-509.4L2781.4-1155.4z M3479.4-1816.5c23.3-15.5,42.8-50.6,42.8-75.8c0-52.5,50.6-87.5,124.4-87.5c81.7,0,252.8-73.9,334.4-143.9c87.5-73.9,173.1-219.7,192.5-326.7c21.4-108.9-33.1-136.1-264.4-128.3l-182.8,5.8l-44.7,93.3c-56.4,118.6-124.5,149.7-330.6,149.7c-239.2,0-315-40.8-315-169.2c0-124.4,52.5-151.7,480.3-256.7c303.3-73.9,462.8-149.7,573.6-272.2c101.1-110.8,132.2-202.2,132.2-375.3c0-324.7-194.4-528.9-573.6-600.8c-105-19.4-153.6-62.2-134.2-118.6c5.8-21.4-3.9-58.3-19.4-83.6c-27.2-40.8-48.6-48.6-124.4-48.6c-112.8,0-140,23.3-140,118.6c0,89.5-19.4,105-165.3,134.2c-252.8,52.5-437.5,194.4-513.3,394.7c-52.5,141.9-52.5,219.7-1.9,246.9c23.3,11.7,122.5,19.4,237.2,15.6c219.7-5.8,208,0,270.3-167.2c33.1-93.3,112.8-126.4,299.4-128.3c252.8,0,359.7,58.3,359.7,196.4c0,122.5-83.6,169.2-453.1,258.6c-303.3,72-435.6,120.6-544.4,204.2c-246.9,188.6-256.7,595-17.5,810.8c106.9,95.3,210,145.8,365.6,178.9c134.2,29.2,163.3,50.5,163.3,124.4C3230.6-1791.2,3395.8-1756.2,3479.4-1816.5z M6810.3-1804.8c19.4-11.7,37-36.9,37-54.4c0-68.1,48.6-103,184.7-130.3c157.5-33.1,293.6-118.6,375.3-233.3c103.1-143.9,132.2-303.3,64.2-340.3c-42.8-21.4-369.5-27.2-404.5-3.9c-11.7,7.8-36.9,52.5-56.4,99.2c-42.8,108.9-110.8,138-322.8,138c-114.7,0-180.8-9.7-227.5-35c-120.5-60.3-124.4-194.4-11.7-268.3c27.2-17.5,182.8-66.1,346.1-106.9c350-89.5,546.4-178.9,645.6-293.6c173.1-204.2,167.2-550.3-15.5-748.6c-99.2-106.9-229.4-175-410.3-211.9c-75.8-17.5-143.9-40.8-151.7-52.5c-7.8-13.6-15.5-56.4-15.5-95.3c0-85.5-37-112.8-151.7-112.8c-93.3,0-124.4,33.1-138.1,141.9l-11.7,81.7l-124.5,25.3c-165.3,31.1-272.2,81.7-369.5,171.1c-151.7,136.1-245,365.6-182.8,455c25.3,35,48.6,38.9,237.2,38.9c233.3,0,233.3,0,270.3-128.3c31.1-105,72-140,200.3-163.3c192.5-37,410.3,9.7,455,97.2c87.5,169.2-21.4,254.7-443.3,351.9c-390.8,87.5-585.3,196.4-680.6,375.3c-31.1,62.2-40.8,114.7-40.8,235.3c-1.9,136.1,5.8,169.2,56.4,260.6c37,66.1,95.3,134.2,159.4,180.8c97.2,73.9,293.6,151.7,383.1,151.7c54.4,0,89.4,35,89.4,89.5C6555.6-1804.8,6711.1-1752.3,6810.3-1804.8z"/></g></g>
</svg>