<?xml version="1.0" encoding="utf-8"?>
<!-- Svg Vector Icons : http://www.onlinewebfonts.com/icon -->
<!DOCTYPE svg PUBLIC "-//W3C//DTD SVG 1.1//EN" "http://www.w3.org/Graphics/SVG/1.1/DTD/svg11.dtd">
<svg version="1.1" xmlns="http://www.w3.org/2000/svg" xmlns:xlink="http://www.w3.org/1999/xlink" x="0px" y="0px" viewBox="0 0 1000 1000" enable-background="new 0 0 1000 1000" xml:space="preserve">
<metadata> Svg Vector Icons : http://www.onlinewebfonts.com/icon </metadata>
<g><g transform="translate(0.000000,511.000000) scale(0.100000,-0.100000)"><path d="M1286.5,4994.1c-288.7-51.4-526-181.9-759.3-415.2c-189.8-189.8-294.6-354-369.8-583.3c-73.1-223.4-77.1-563.6-7.9-781.1c25.7-81.1,57.3-170.1,71.2-197.7c21.8-43.5,19.8-65.3-19.8-160.2c-77.1-191.8-98.9-314.4-96.9-551.7c2-187.9,11.9-255.1,53.4-385.6C373,1260.8,1041.3,823.8,1687.9,918.8c634.7,91,1137,587.3,1233.9,1220c31.6,209.6,9.9,415.3-69.2,642.7l-63.3,185.9l55.4,140.4c81.1,207.6,108.8,442.9,79.1,652.5c-49.4,338.1-166.1,565.5-419.2,818.6c-191.8,191.8-355.9,294.6-583.3,367.8C1743.3,5002.1,1454.6,5023.8,1286.5,4994.1z M1745.3,4675.8c63.3-11.9,189.8-55.4,278.8-96.9c397.4-191.8,626.8-607.1,593.2-1077.7c-19.8-274.9-128.5-504.2-338.1-711.9c-411.3-405.4-1115.3-405.4-1526.5,0c-209.6,207.6-318.4,437-338.1,711.9C361.1,4260.5,986,4812.2,1745.3,4675.8z M711.1,2427.5c255.1-178,528-261,850.3-261c227.4,0,270.9-25.7,270.9-158.2c0-138.4-39.5-158.2-316.4-158.2c-211.6,0-241.2,4-276.8,39.6c-21.7,21.8-39.6,57.3-39.6,79.1c0,35.6-13.8,39.6-160.2,39.6H879.2L891,1947c33.6-176,199.7-352,367.8-395.5c96.9-25.7,98.9-27.7,98.9-100.8v-75.1h158.2h158.2v75.1c0,75.1,2,75.1,102.8,102.8c83.1,19.8,126.6,49.4,213.6,136.4c166.1,166.1,197.7,330.2,100.9,516.1l-39.6,75.1l61.3,25.7c91,37.6,282.8,166.1,379.7,255.1c102.8,94.9,108.8,89,124.6-150.3c51.4-757.3-575.4-1309-1330.8-1172.6c-63.3,11.9-187.9,55.4-274.9,96.9c-399.4,191.8-630.8,609-597.2,1075.7c15.8,239.3,21.8,245.2,120.6,154.2C578.6,2524.4,657.7,2463.1,711.1,2427.5z"/><path d="M1357.7,4464.2c0-75.1-2-75.1-102.8-102.8c-83-19.8-126.5-49.4-213.6-136.4c-211.6-213.6-211.6-425.1,0-634.7c134.5-136.4,203.7-158.2,492.4-158.2c259,0,298.6-21.8,298.6-158.2c0-138.4-39.5-158.2-316.4-158.2c-211.6,0-241.2,4-276.8,39.6c-21.7,21.7-39.6,57.3-39.6,79.1c0,35.6-13.8,39.6-160.2,39.6H877.2l13.8-61.3c33.6-176,199.7-352,367.8-395.5c96.9-25.7,98.9-27.7,98.9-100.8v-75.1h158.2h158.2v79.1c0,61.3,7.9,79.1,35.6,79.1c59.3,2,209.6,79.1,278.8,144.3c77.1,73.2,160.2,237.3,160.2,318.4c0,120.6-47.4,217.5-158.2,328.2c-134.5,136.4-203.7,158.2-492.4,158.2c-259,0-298.6,21.8-298.6,158.2c0,138.4,39.6,158.2,316.4,158.2c211.6,0,241.2-4,276.8-39.5c21.8-21.8,39.5-57.3,39.5-79.1c0-35.6,13.8-39.5,160.2-39.5h162.1l-13.8,61.3c-33.6,176-199.7,352-367.8,395.5c-96.9,25.7-98.9,27.7-98.9,100.8v75.1h-158.2h-158.2V4464.2z"/><path d="M4521.5,1533.7v-3480.2h237.3h237.3v-1423.7v-1423.7h2214.7h2214.7v1423.7v1423.7h237.3H9900v3480.2v3480.2H7210.8H4521.5V1533.7z M9583.6,1533.7v-3163.8H7210.8H4837.9v3163.8v3163.8h2372.9h2372.9V1533.7z M9109-3212v-1265.5H7210.8H5312.5V-3212v1265.5h1898.3H9109V-3212z"/><path d="M5154.3,3748.4v-632.8h2056.5h2056.5v632.8v632.8H7210.8H5154.3V3748.4z M8950.8,3748.4V3432H7210.8H5470.7v316.4v316.4h1740.1h1740.1V3748.4z"/><path d="M5154.3,1850.1V901h949.2h949.1v949.1v949.1h-949.1h-949.2V1850.1z M6736.2,1850.1v-632.8h-632.8h-632.8v632.8v632.8h632.8h632.8V1850.1z"/><path d="M5945.2,2166.5v-158.2H5787h-158.2v-158.2v-158.2H5787h158.2v-158.2v-158.2h158.2h158.2v158.2v158.2h158.2H6578v158.2v158.2h-158.2h-158.2v158.2v158.2h-158.2h-158.2V2166.5z"/><path d="M7368.9,1850.1V901h949.1h949.1v949.1v949.1h-949.1h-949.1V1850.1z M8950.8,1850.1v-632.8h-632.8h-632.8v632.8v632.8h632.8h632.8V1850.1z"/><path d="M7843.5,1850.1v-158.2h474.6h474.6v158.2v158.2h-474.6h-474.6V1850.1z"/><path d="M5154.3-364.6v-949.2h949.2h949.1v949.2v949.1h-949.1h-949.2V-364.6z M6736.2-364.6v-632.8h-632.8h-632.8v632.8v632.8h632.8h632.8V-364.6z"/><path d="M5787-58.1l-106.8-108.8l96.9-98.9l96.9-98.9l-96.9-98.9l-98.9-98.9L5793-675l112.7-114.7l98.9,98.9l98.9,96.9l98.9-96.9l98.9-98.9L6413.9-675l114.7,112.7l-98.9,98.9l-96.9,98.9l96.9,98.9l98.9,98.9L6413.9-54.1L6301.2,60.6l-98.9-98.9l-98.9-96.9l-94.9,92.9c-51.4,51.4-98.9,92.9-104.8,92.9C5899.7,50.7,5846.4,1.2,5787-58.1z"/><path d="M7368.9-364.6v-949.2h949.1h949.1v949.2v949.1h-949.1h-949.1V-364.6z M8950.8-364.6v-632.8h-632.8h-632.8v632.8v632.8h632.8h632.8V-364.6z"/><path d="M8241,84.3c-98.9-49.4-96.9-219.5,4-266.9c33.6-15.8-7.9-21.8-178-21.8l-223.4-2v-158.2v-158.2l223.4-2c170.1,0,211.6-5.9,178-21.8c-106.8-51.4-102.8-215.5,5.9-267c130.5-63.3,261,59.3,205.7,193.8c-13.8,33.6-45.5,69.2-67.2,77.1c-25.7,11.9,39.5,17.8,181.9,17.8l221.5,2v158.2v158.2l-221.5,2c-172,0-213.6,5.9-179.9,21.8c23.7,11.9,53.4,45.5,67.2,77.1c29.7,73.2-3.9,162.1-73.2,193.8C8324,115.9,8300.3,115.9,8241,84.3z"/><path d="M5628.8-2262.9v-158.2H5787h158.2v-316.4v-316.4h158.2h158.2v316.4v316.4h158.2H6578v158.2v158.2h-474.6h-474.6V-2262.9z"/><path d="M6736.2-2579.2v-474.6h158.2h158.2v79.1v79.1h158.2h158.2v-79.1v-79.1h158.2h158.2v474.6v474.6h-474.6h-474.6V-2579.2z M7368.9-2500.1v-79.1h-158.2h-158.2v79.1v79.1h158.2h158.2V-2500.1z"/><path d="M7843.5-2217.4c0-112.7,0-114.7,122.6-237.3l122.6-124.6l-122.6-124.6c-122.6-122.6-122.6-124.6-122.6-237.3v-112.7h158.2c152.3,0,158.2,2,158.2,45.5c0,27.7,31.6,77.1,79.1,122.6l79.1,77.1l79.1-77.1c47.5-45.5,79.1-94.9,79.1-122.6c0-43.5,5.9-45.5,158.2-45.5h158.2v112.7c0,112.7,0,114.7-122.6,237.3l-122.6,124.6l122.6,124.6c122.6,122.6,122.6,124.6,122.6,237.3v112.7h-158.2c-152.3,0-158.2-2-158.2-45.5c0-27.7-31.6-77.1-79.1-122.6l-79.1-77.1l-79.1,77.1c-47.5,45.5-79.1,94.9-79.1,122.6c0,43.5-5.9,45.5-158.2,45.5h-158.2V-2217.4z"/><path d="M5628.8-3370.2v-158.2h1581.9h1581.9v158.2v158.2H7210.8H5628.8V-3370.2z"/><path d="M7210.8-4003v-158.2h790.9h791v158.2v158.2h-791h-790.9V-4003z"/><path d="M1357.7,465.9V347.3h158.2h158.2v118.6v118.6h-158.2h-158.2V465.9z"/><path d="M3878.9,422.4c-65.2-33.6-120.6-63.3-124.6-65.2c-4-4,39.5-94.9,92.9-205.6l100.8-199.7h-176c-225.4,0-355.9-27.7-506.2-104.8c-225.4-118.6-411.3-361.9-462.7-603.1c-13.8-69.2-21.8-498.3-21.8-1287.3c0-1358.4,4-1324.9-158.2-1485c-211.6-213.6-579.4-213.6-791,0c-132.5,130.5-158.2,225.4-158.2,587.3v282.8h-158.2h-158.2v-280.8c0-176,9.9-320.3,27.7-383.6c114.7-433.1,561.6-739.6,966.9-664.4c259.1,47.5,512.2,229.4,630.8,450.8c112.7,209.6,114.7,225.4,114.7,1520.6c0,1366.4-4,1332.8,158.2,1492.9c120.6,122.6,233.3,158.2,498.3,158.2h193.8l-98.9-197.7c-53.4-108.8-98.9-199.7-98.9-203.7c0-11.9,276.8-140.4,284.8-130.5c4,4,85,162.1,178,348l170,342.1l-172,346c-94.9,189.8-181.9,346-193.8,346C4007.4,483.7,3944.1,456,3878.9,422.4z"/><path d="M1357.7-295.4V-503h158.2h158.2v207.6v207.6h-158.2h-158.2V-295.4z"/><path d="M1357.7-1155.5V-1373h158.2h158.2v217.5V-938h-158.2h-158.2V-1155.5z"/><path d="M1357.7-2015.7v-207.6h158.2h158.2v207.6v207.6h-158.2h-158.2V-2015.7z"/></g></g>
</svg>